<?xml version="1.0" standalone="no"?>
<!DOCTYPE svg PUBLIC "-//W3C//DTD SVG 20010904//EN"
 "http://www.w3.org/TR/2001/REC-SVG-20010904/DTD/svg10.dtd">
<svg version="1.0" xmlns="http://www.w3.org/2000/svg"
 width="341.000000pt" height="341.000000pt" viewBox="0 0 341.000000 341.000000"
 preserveAspectRatio="xMidYMid meet">
<metadata>
Created by potrace 1.11, written by Peter Selinger 2001-2013
</metadata>
<g transform="translate(0.000000,341.000000) scale(0.100000,-0.100000)"
fill="#000000" stroke="none">
<path d="M0 1705 l0 -1705 1705 0 1705 0 0 1705 0 1705 -1705 0 -1705 0 0
-1705z m2916 1473 c-230 -437 -736 -1411 -736 -1418 0 -5 171 -156 380 -335
209 -180 380 -329 380 -331 0 -4 -37 12 -548 233 -211 91 -384 164 -386 162
-2 -2 -234 -312 -516 -689 -282 -377 -517 -689 -523 -695 -11 -12 67 141 491
950 285 543 308 591 293 606 -9 9 -306 238 -661 509 -355 271 -649 497 -655
503 -13 12 -64 38 766 -387 394 -201 721 -366 727 -366 5 0 242 311 527 690
285 380 519 690 522 690 2 0 -25 -55 -61 -122z"/>
</g>
</svg>
