<?xml version="1.0" encoding="UTF-8" standalone="no"?>
<svg
   xmlns:dc="http://purl.org/dc/elements/1.1/"
   xmlns:cc="http://creativecommons.org/ns#"
   xmlns:rdf="http://www.w3.org/1999/02/22-rdf-syntax-ns#"
   xmlns:svg="http://www.w3.org/2000/svg"
   xmlns="http://www.w3.org/2000/svg"
   xmlns:sodipodi="http://sodipodi.sourceforge.net/DTD/sodipodi-0.dtd"
   xmlns:inkscape="http://www.inkscape.org/namespaces/inkscape"
   sodipodi:docname="logo.svg"
   inkscape:version="1.0 (4035a4fb49, 2020-05-01)"
   id="svg853"
   version="1.1"
   viewBox="0 0 304.39742 66.451767"
   height="66.451767mm"
   width="304.39743mm">
  <defs
     id="defs847" />
  <sodipodi:namedview
     fit-margin-bottom="0"
     fit-margin-right="0"
     fit-margin-left="0"
     fit-margin-top="0"
     inkscape:pagecheckerboard="true"
     inkscape:window-maximized="1"
     inkscape:window-y="-9"
     inkscape:window-x="69"
     inkscape:window-height="1051"
     inkscape:window-width="1842"
     showgrid="false"
     inkscape:document-rotation="0"
     inkscape:current-layer="g841"
     inkscape:document-units="mm"
     inkscape:cy="306.86087"
     inkscape:cx="605.34843"
     inkscape:zoom="0.98994949"
     inkscape:pageshadow="2"
     inkscape:pageopacity="0.0"
     borderopacity="1.0"
     bordercolor="#666666"
     pagecolor="#ffffff"
     id="base" />
  <metadata
     id="metadata850">
    <rdf:RDF>
      <cc:Work
         rdf:about="">
        <dc:format>image/svg+xml</dc:format>
        <dc:type
           rdf:resource="http://purl.org/dc/dcmitype/StillImage" />
        <dc:title></dc:title>
      </cc:Work>
    </rdf:RDF>
  </metadata>
  <g
     transform="translate(41.829672,-130.81579)"
     id="layer1"
     inkscape:groupmode="layer"
     inkscape:label="Layer 1">
    <g
       inkscape:export-ydpi="78.808701"
       inkscape:export-xdpi="78.808701"
       inkscape:export-filename="C:\Users\benit\Downloads\logo.png"
       style="fill:#ffffff"
       transform="matrix(0.09409972,0,0,0.09409972,21.11792,210.70736)"
       id="g841">
      <path
         inkscape:export-ydpi="78.808701"
         inkscape:export-xdpi="78.808701"
         inkscape:export-filename="C:\Users\benit\Downloads\logo.png"
         id="path845"
         d="m -115.85909,-152.64011 c -58.63094,-24.54976 -95.76078,-90.18256 -102.23892,-180.72325 -6.9598,-97.27218 11.54894,-161.06743 62.00904,-213.73051 38.66088,-40.34873 45.59211,-43.61798 92.475803,-43.61798 83.955308,0 135.379437,56.77482 147.897807,163.28656 l 6.531314,55.57127 H -39.878797 -170.57355 v 30.41308 c 0,52.04945 20.8218,116.20957 45.12194,139.03836 14.14395,13.28756 41.114828,23.87721 68.744933,26.99154 42.410089,4.78022 47.8060121,2.6472 80.204084,-31.70476 19.104233,-20.25639 34.73496,-43.226 34.73496,-51.04358 0,-7.8176 4.476638,-14.21381 9.948083,-14.21381 26.115128,0 -5.988729,66.11369 -50.146381,103.2699 -32.241655,27.12956 -91.127229,34.36999 -133.893159,16.46318 z M 33.528856,-438.87252 c -8.818081,-58.8032 -28.2893319,-97.25309 -59.657927,-117.80657 -29.054305,-19.03712 -74.712179,-11.87939 -99.592429,15.613 -21.08908,23.30315 -43.83776,85.76798 -44.41539,121.95868 l -0.43666,27.35722 h 105.584414 105.58443 z m 614.878334,281.84698 c -48.12436,-21.75306 -66.32278,-56.60499 -60.6088,-116.07198 7.97498,-82.99665 70.81155,-131.47417 199.92534,-154.23953 43.73709,-7.71175 51.27558,-20.17879 42.0232,-69.49779 -9.27957,-49.46434 -37.03514,-73.98085 -83.75522,-73.98085 -53.7084,0 -90.87434,30.80967 -90.87434,75.33266 0,29.73729 -3.17951,34.09626 -24.87021,34.09626 -20.55881,0 -24.87021,-4.79 -24.87021,-27.63073 0,-59.9807 57.12796,-101.69435 139.27317,-101.69435 60.55937,0 101.22597,18.84996 117.44019,54.43649 7.6824,16.86094 11.88481,84.20446 11.88481,190.45153 v 164.36719 l 22.38318,-3.17891 c 16.02653,-2.27612 23.27719,-10.94831 25.5311,-30.53616 1.73113,-15.04647 7.88651,-27.35723 13.67861,-27.35723 12.78727,0 3.01079,56.70148 -13.12948,76.14951 -17.32459,20.87476 -65.12894,16.38491 -81.99956,-7.7015 l -14.76843,-21.08477 -29.71497,21.15896 c -38.80559,27.63201 -106.69907,35.4458 -147.54838,16.9812 z m 119.2801,-27.05804 c 58.9575,-30.365 66.49549,-46.20895 66.49549,-139.76411 0,-48.28927 -3.66404,-87.79866 -8.1425,-87.79866 -19.20627,0 -116.5447,32.86502 -136.96344,46.2439 -54.98007,36.02429 -68.50877,138.07981 -23.21186,175.10095 24.30685,19.86596 69.91523,22.65111 101.82231,6.21792 z m 1149.82061,18.26728 c -18.5913,-12.5225 -44.9519,-42.7398 -58.5793,-67.14956 -20.9652,-37.55415 -24.7911,-57.42995 -24.8702,-129.20562 -0.079,-71.59661 3.877,-92.53949 25.3667,-134.29913 31.1658,-60.56302 77.8734,-94.24124 130.7004,-94.24124 83.147,0 135.3864,57.4813 144.602,159.1123 l 5.3617,59.13087 -128.1919,2.79435 -128.1918,2.79435 2.7511,44.76638 c 4.2958,69.90118 20.9845,109.02618 55.4759,130.05782 61.27,37.36015 126.2773,15.81343 162.4333,-53.83856 8.9798,-17.29909 18.1844,-25.95382 20.4547,-19.23276 6.7533,19.99316 -39.8331,93.09612 -68.9095,108.13215 -40.8422,21.12036 -99.5013,17.38164 -138.4031,-8.82135 z m 167.8141,-276.41535 c -5.2496,-54.63446 -29.2374,-95.1196 -70.1003,-118.31121 -22.8335,-12.95904 -29.5278,-12.78167 -59.6454,1.58038 -37.4801,17.87309 -60.9513,58.76099 -71.7158,124.93294 l -6.8779,42.27935 h 106.595 106.5951 z m -2753.29972,279.97929 c 0,-5.09092 10.07243,-10.68672 22.38318,-12.43511 l 22.38319,-3.17892 2.62918,-304.78943 2.62918,-304.78943 -25.01237,-6.2777 c -51.6003,-12.95086 -23.13043,-25.79354 57.05932,-25.73934 109.97915,0.0743 152.99424,13.53468 202.9746,63.51506 57.55802,57.55802 77.40872,127.04615 77.04255,269.69025 -0.44469,173.22531 -37.90188,267.86917 -123.036,310.87761 -36.95668,18.66993 -60.4606,22.38318 -141.6799,22.38318 -53.55511,0 -97.37293,-4.16527 -97.37293,-9.25617 z m 192.1546,-21.8036 c 70.55512,-36.24844 99.80295,-98.63803 111.35647,-237.53848 13.42088,-161.35068 -21.2596,-303.02047 -85.87109,-350.78351 -25.37432,-18.75756 -86.15728,-25.95151 -107.55139,-12.72923 -15.86933,9.80778 -14.59641,584.35078 1.32994,600.27713 14.99838,14.99839 52.35235,15.35654 80.73607,0.77406 z m 1518.91562,21.65676 c 0,-5.17166 21.264,-10.76745 47.2534,-12.4351 l 47.2534,-3.03209 v -189.01359 -189.01358 l -47.2534,-3.03209 c -67.6337,-4.33982 -64.0804,-28.63483 4.974,-34.01071 28.7251,-2.23623 60.0616,-7.60612 69.6366,-11.93311 16.2702,-7.35253 17.4091,5.49096 17.4091,196.31919 0,112.30252 2.7172,211.2675 6.0384,219.92218 4.2382,11.04458 19.0669,15.73575 49.7404,15.73575 24.036,0 43.7021,4.47663 43.7021,9.94808 0,6.07939 -46.4244,9.94808 -119.377,9.94808 -68.3394,0 -119.377,-4.0201 -119.377,-9.40301 z m 407.8714,0 c 0,-5.17166 21.264,-10.76745 47.2534,-12.4351 l 47.2534,-3.03209 2.6291,-304.70617 2.6291,-304.70616 -22.5253,-6.0356 c -12.3888,-3.31957 -34.836,-6.09673 -49.8825,-6.17144 -15.0465,-0.0748 -27.3572,-4.61248 -27.3572,-10.08393 0,-5.47144 19.0257,-10.1067 42.2793,-10.30059 23.2537,-0.19389 53.471,-6.7502 67.1496,-14.56961 13.6786,-7.8194 28.1682,-14.37573 32.199,-14.56962 4.0308,-0.19387 8.5074,150.73401 9.948,335.3953 l 2.6194,335.74782 47.2534,3.03209 c 25.9893,1.66765 47.2534,7.26344 47.2534,12.4351 0,5.4038 -52.8879,9.40301 -124.3511,9.40301 -71.4632,0 -124.351,-3.99921 -124.351,-9.40301 z m 766.0024,0.0269 c 0,-5.15685 19.0257,-10.75265 42.2794,-12.4351 l 42.2793,-3.05895 v -189.01359 -189.01358 l -42.2793,-3.05902 c -23.2537,-1.68245 -42.2794,-7.41875 -42.2794,-12.74732 0,-12.52156 12.583,-16.08498 82.0717,-23.24219 l 57.2015,-5.89165 v 61.7352 61.7352 l 29.8814,-40.6323 c 38.215,-51.96463 70.3127,-72.71621 112.474,-72.71621 54.8462,0 88.8085,58.6791 51.7589,89.42761 -22.875,18.98451 -44.8931,4.5519 -44.8931,-29.42689 0,-62.55972 -76.8159,-26.19718 -122.6822,58.07436 -25.9886,47.74925 -27.0398,55.18626 -24.3627,172.33656 l 2.7977,122.43382 47.2534,3.03209 c 25.9894,1.66765 47.2534,7.26344 47.2534,12.4351 0,5.38291 -51.0376,9.40301 -119.377,9.40301 -68.0975,0 -119.377,-4.02759 -119.377,-9.37608 z M 243.09578,-240.04191 c 55.90086,-125.67656 103.631,-240.73608 103.631,-249.81559 0,-5.27395 -48.12385,-54.99266 -106.94189,-110.48602 l -106.9419,-100.89699 89.53275,51.9435 c 49.24301,28.56892 106.10566,62.31189 126.36135,74.98439 l 36.8287,23.04087 53.67429,-91.84365 c 71.83352,-122.91663 78.89616,-134.14545 73.40989,-116.71387 -2.58302,8.20717 -25.30424,67.96483 -50.4915,132.79481 -25.18735,64.82997 -45.7951,119.39063 -45.7951,121.2459 0,1.85525 20.1374,17.8348 44.74986,35.51011 24.61245,17.67531 43.15259,33.7342 41.20028,35.68643 -1.95221,1.95224 -24.6991,-5.51626 -50.5486,-16.59665 -25.84949,-11.08041 -50.93239,-20.14618 -55.7398,-20.14618 -4.80741,0 -45.2022,64.91124 -89.76615,144.24721 -44.56397,79.33596 -82.73111,144.2472 -84.81588,144.2472 -2.08477,0 7.65894,-25.74066 21.6527,-57.20147 z M 1139.141,-748.17748 c -21.5623,-23.82615 -20.7684,-37.1915 3.6603,-61.6202 37.109,-37.10894 83.9653,11.34823 54.4828,56.34419 -18.4597,28.1729 -35.9827,29.76297 -58.1431,5.27601 z"
         style="fill:#ffffff;stroke:none;stroke-width:9.95516;stroke-miterlimit:4;stroke-dasharray:none" />
    </g>
  </g>
</svg>
